<svg width="46" height="44" viewBox="0 0 46 44" fill="none" xmlns="http://www.w3.org/2000/svg">
<path fill-rule="evenodd" clip-rule="evenodd" d="M13.6791 0.132C16.1139 0.024 16.8902 0 23.0922 0C29.2943 0 30.0706 0.026 32.5033 0.132C34.936 0.238 36.5965 0.612 38.0494 1.154C39.5709 1.708 40.9512 2.574 42.0928 3.694C43.2552 4.792 44.1519 6.12 44.7248 7.588C45.2893 8.988 45.6754 10.588 45.7875 12.928C45.8996 15.278 45.9245 16.026 45.9245 22C45.9245 27.976 45.8975 28.724 45.7875 31.07C45.6775 33.41 45.2893 35.01 44.7248 36.41C44.1519 37.8782 43.2537 39.2084 42.0928 40.308C40.9512 41.428 39.5709 42.292 38.0494 42.844C36.5965 43.388 34.9359 43.76 32.5074 43.868C30.0706 43.976 29.2943 44 23.0922 44C16.8902 44 16.1139 43.974 13.6791 43.868C11.2506 43.762 9.59009 43.388 8.13713 42.844C6.61343 42.2919 5.23291 41.4265 4.09167 40.308C2.93009 39.2093 2.0312 37.8798 1.45766 36.412C0.895161 35.012 0.509089 33.412 0.397003 31.072C0.284918 28.722 0.26001 27.974 0.26001 22C0.26001 16.024 0.286993 15.276 0.397003 12.932C0.507013 10.588 0.895161 8.988 1.45766 7.588C2.03205 6.12016 2.93163 4.79063 4.09375 3.692C5.23337 2.573 6.6125 1.70689 8.13506 1.154C9.58802 0.612 11.2485 0.24 13.6771 0.132H13.6791ZM32.3185 4.092C29.9108 3.986 29.1885 3.964 23.0922 3.964C16.996 3.964 16.2737 3.986 13.8659 4.092C11.6388 4.19 10.4307 4.548 9.62538 4.85C8.56057 5.25 7.7988 5.724 6.99967 6.494C6.24215 7.2041 5.65917 8.06856 5.29348 9.024C4.98006 9.8 4.60851 10.964 4.50681 13.11C4.3968 15.43 4.37396 16.126 4.37396 22C4.37396 27.874 4.3968 28.57 4.50681 30.89C4.60851 33.036 4.98006 34.2 5.29348 34.976C5.6588 35.93 6.24206 36.796 6.99967 37.506C7.73653 38.236 8.63529 38.798 9.62538 39.15C10.4307 39.452 11.6388 39.81 13.8659 39.908C16.2737 40.014 16.994 40.036 23.0922 40.036C29.1905 40.036 29.9108 40.014 32.3185 39.908C34.5457 39.81 35.7538 39.452 36.5591 39.15C37.6239 38.75 38.3857 38.276 39.1848 37.506C39.9424 36.796 40.5257 35.93 40.891 34.976C41.2044 34.2 41.576 33.036 41.6777 30.89C41.7877 28.57 41.8105 27.874 41.8105 22C41.8105 16.126 41.7877 15.43 41.6777 13.11C41.576 10.964 41.2044 9.8 40.891 9.024C40.4759 7.998 39.984 7.264 39.1848 6.494C38.4478 5.76414 37.5507 5.20242 36.5591 4.85C35.7538 4.548 34.5457 4.19 32.3185 4.092V4.092ZM20.1759 28.782C21.8046 29.4353 23.6182 29.5234 25.3068 29.0314C26.9955 28.5395 28.4545 27.4978 29.4346 26.0845C30.4148 24.6711 30.8553 22.9737 30.6809 21.2822C30.5066 19.5907 29.7281 18.0099 28.4786 16.81C27.682 16.043 26.7189 15.4556 25.6585 15.0903C24.598 14.725 23.4668 14.5907 22.346 14.6972C21.2253 14.8037 20.1431 15.1484 19.1771 15.7063C18.2112 16.2642 17.3857 17.0215 16.76 17.9237C16.1344 18.8259 15.7241 19.8506 15.5587 20.9239C15.3933 21.9973 15.477 23.0926 15.8037 24.131C16.1303 25.1695 16.6919 26.1252 17.448 26.9294C18.204 27.7337 19.1357 28.3664 20.1759 28.782ZM14.7938 14.004C15.8835 12.954 17.1773 12.121 18.6011 11.5527C20.025 10.9844 21.5511 10.6919 23.0922 10.6919C24.6334 10.6919 26.1595 10.9844 27.5834 11.5527C29.0072 12.121 30.301 12.954 31.3907 14.004C32.4805 15.054 33.345 16.3006 33.9347 17.6726C34.5245 19.0446 34.8281 20.515 34.8281 22C34.8281 23.485 34.5245 24.9554 33.9347 26.3274C33.345 27.6994 32.4805 28.946 31.3907 29.996C29.1898 32.1167 26.2048 33.3081 23.0922 33.3081C19.9797 33.3081 16.9947 32.1167 14.7938 29.996C12.5929 27.8753 11.3564 24.9991 11.3564 22C11.3564 19.0009 12.5929 16.1247 14.7938 14.004V14.004ZM37.4309 12.376C37.7009 12.1305 37.9171 11.8354 38.0667 11.5079C38.2162 11.1805 38.296 10.8275 38.3015 10.4699C38.3069 10.1122 38.2377 9.7571 38.0982 9.42562C37.9586 9.09415 37.7514 8.79302 37.4889 8.54008C37.2264 8.28714 36.9139 8.08751 36.5699 7.95304C36.2259 7.81856 35.8574 7.75195 35.4861 7.75717C35.1149 7.76238 34.7486 7.83931 34.4088 7.98339C34.069 8.12748 33.7626 8.33579 33.5079 8.596C33.0125 9.10206 32.7412 9.77424 32.7517 10.4699C32.7623 11.1655 33.0537 11.8298 33.5643 12.3217C34.0748 12.8136 34.7642 13.0945 35.4861 13.1046C36.2081 13.1147 36.9057 12.8534 37.4309 12.376V12.376Z" fill="black"/>
</svg>
