<svg width="38" height="34" viewBox="0 0 38 34" fill="none" xmlns="http://www.w3.org/2000/svg">
<path d="M11.5406 33H11.3745C8.02933 32.9718 4.73249 32.2272 1.72274 30.82C1.16911 30.5695 0.713261 30.1547 0.421932 29.6365C0.130604 29.1182 0.019094 28.5237 0.103726 27.94C0.19577 27.3524 0.478148 26.8078 0.910548 26.3839C1.34295 25.9601 1.90326 25.6788 2.51149 25.58C4.3767 25.3403 6.17105 24.7344 7.78366 23.8C4.98393 21.6909 2.82855 18.8912 1.54593 15.6977C0.263316 12.5041 -0.0987515 9.03573 0.498101 5.66004C0.579027 5.12535 0.817679 4.62431 1.18566 4.21656C1.55364 3.80881 2.03545 3.51151 2.57376 3.36004C3.09748 3.20156 3.65797 3.19479 4.18565 3.34057C4.71333 3.48634 5.18495 3.77825 5.54195 4.18004C6.75414 5.71161 8.27745 6.98916 10.0189 7.93477C11.7604 8.88038 13.6836 9.47421 15.6712 9.68004C15.7661 7.32375 16.817 5.09747 18.5978 3.48004C19.4871 2.65959 20.5368 2.01786 21.686 1.59226C22.8352 1.16665 24.0608 0.965677 25.2914 1.00104C26.522 1.03641 27.733 1.30742 28.8538 1.79826C29.9747 2.28911 30.9829 2.98998 31.8198 3.86004C32.0378 4.04578 32.3087 4.16415 32.5974 4.1998C32.8861 4.23546 33.1792 4.18677 33.4388 4.06004C33.9337 3.83514 34.4848 3.75047 35.0277 3.81593C35.5707 3.88139 36.0831 4.09427 36.5053 4.42973C36.9274 4.7652 37.2418 5.20941 37.4119 5.71055C37.5819 6.21169 37.6005 6.74909 37.4656 7.26004C36.9868 9.16027 36.0797 10.9356 34.8087 12.46C34.5286 18.1495 31.9254 23.5016 27.5666 27.3493C23.2079 31.1969 17.4472 33.2282 11.5406 33V33ZM11.5406 29H11.7067C14.12 29.08 16.5257 28.6976 18.7845 27.875C21.0433 27.0524 23.1101 25.8059 24.8652 24.2078C26.6202 22.6097 28.0286 20.6919 29.0086 18.5654C29.9887 16.439 30.5209 14.1462 30.5744 11.82C30.6087 11.1825 30.8815 10.5786 31.3424 10.12C31.8486 9.50253 32.2804 8.83156 32.6293 8.12004C31.8815 8.12141 31.1419 7.9707 30.4587 7.67776C29.7756 7.38481 29.1643 6.95623 28.6648 6.42004C28.1845 5.96115 27.614 5.59919 26.9867 5.35537C26.3594 5.11154 25.688 4.99074 25.0116 5.00004C24.3285 4.98302 23.6487 5.09617 23.0111 5.33299C22.3735 5.56981 21.7907 5.92563 21.2962 6.38004C20.629 6.99004 20.1398 7.75817 19.8776 8.60757C19.6153 9.45697 19.5891 10.3578 19.8017 11.22L20.3414 13.5L17.9129 13.66C15.4244 13.8556 12.9215 13.5276 10.5775 12.6988C8.23359 11.87 6.10463 10.5601 4.33807 8.86004C4.2623 11.4928 4.94582 14.0943 6.31263 16.3752C7.67944 18.6561 9.67598 20.527 12.0803 21.78L14.0521 22.86L12.7445 24.66C11.3303 26.4471 9.39268 27.7847 7.18172 28.5C8.60004 28.8426 10.0577 29.0106 11.5198 29H11.5406Z" fill="black"/>
</svg>
